<svg width="112" height="112" viewBox="0 0 112 112" fill="none" xmlns="http://www.w3.org/2000/svg">
<path d="M63.75 14.79C65.63 17.43 67.15 20.34 68.24 23.46C69.6 23.64 70.95 23.89 72.26 24.2C72.48 24.25 72.7 24.31 72.92 24.36C72.97 24.37 73.03 24.39 73.08 24.4C73.36 24.47 73.64 24.55 73.92 24.63C73.92 24.63 73.92 24.63 73.93 24.63C74.2 24.7 74.47 24.78 74.73 24.87C74.96 24.94 75.19 25.01 75.42 25.09C75.66 25.17 75.89 25.25 76.13 25.33C76.35 25.4 76.57 25.48 76.79 25.57C77.01 25.65 77.22 25.73 77.44 25.82C78.71 26.31 79.95 26.87 81.15 27.49C81.44 27.64 81.72 27.78 82 27.94C82.48 28.2 82.95 28.47 83.42 28.75C83.62 28.87 83.82 28.99 84.01 29.11C84.1 29.16 84.2 29.22 84.29 29.28C84.5 29.41 84.71 29.55 84.91 29.69C85.11 29.82 85.31 29.95 85.5 30.09C87.8 31.66 89.92 33.48 91.84 35.49C92.07 35.72 92.28 35.95 92.49 36.19C92.67 36.38 92.84 36.58 93.01 36.77C93.29 37.09 93.56 37.41 93.83 37.74C94 37.93 94.15 38.13 94.31 38.33C94.52 38.6 94.73 38.87 94.93 39.14C95.12 39.4 95.31 39.66 95.49 39.92C95.68 40.18 95.86 40.44 96.04 40.71C96.4 41.24 96.74 41.77 97.07 42.32C97.24 42.59 97.4 42.87 97.56 43.15C97.72 43.43 97.88 43.71 98.03 43.99C98.36 44.6 98.68 45.22 98.97 45.84C99.09 46.09 99.21 46.34 99.32 46.59C99.43 46.84 99.54 47.09 99.65 47.34C99.75 47.56 99.84 47.78 99.93 48.01C100.01 48.22 100.1 48.42 100.18 48.63C100.38 49.15 100.58 49.68 100.75 50.21C100.86 50.52 100.96 50.83 101.05 51.14C101.05 51.14 101.05 51.16 101.06 51.18C101.15 51.48 101.24 51.78 101.32 52.08C101.57 52.94 101.78 53.81 101.97 54.69C102.02 54.91 102.06 55.14 102.11 55.36C102.13 55.49 102.16 55.62 102.18 55.74C102.21 55.91 102.24 56.08 102.27 56.26C102.31 56.51 102.35 56.75 102.39 57C102.43 57.25 102.47 57.5 102.5 57.75C102.51 57.86 102.53 57.97 102.54 58.08C102.56 58.26 102.58 58.45 102.6 58.63C102.62 58.81 102.64 58.98 102.65 59.16C102.68 59.43 102.7 59.7 102.72 59.97C102.74 60.29 102.76 60.61 102.78 60.93C102.8 61.27 102.81 61.61 102.82 61.95C102.82 62.29 102.83 62.63 102.83 62.97C102.83 84.93 84.96 102.8 63 102.8C62.66 102.8 62.31 102.8 61.97 102.79C61.63 102.79 61.29 102.77 60.95 102.75C60.62 102.74 60.28 102.72 59.95 102.69H59.91C59.6 102.67 59.29 102.64 58.98 102.61C58.71 102.58 58.45 102.55 58.18 102.52C58.01 102.5 57.85 102.48 57.68 102.46C57.44 102.43 57.21 102.4 56.98 102.36C56.96 102.36 56.94 102.36 56.92 102.36C56.68 102.33 56.45 102.29 56.22 102.25C56.02 102.22 55.82 102.18 55.63 102.14C55.34 102.09 55.05 102.03 54.77 101.97C53.22 101.64 51.69 101.22 50.2 100.71C49.91 100.61 49.62 100.51 49.33 100.4C49.05 100.3 48.77 100.19 48.48 100.08C48.1 99.93 47.72 99.77 47.34 99.61C47.1 99.51 46.86 99.41 46.63 99.3C46.38 99.19 46.12 99.06 45.86 98.94C45.54 98.78 45.21 98.63 44.89 98.46C44.63 98.32 44.36 98.19 44.1 98.04C43.8 97.87 43.5 97.71 43.2 97.53C42.92 97.37 42.65 97.21 42.37 97.04C42.37 97.04 42.36 97.04 42.35 97.04C41.84 96.74 41.35 96.42 40.86 96.09C40.82 96.07 40.78 96.04 40.75 96.01C40.49 95.83 40.23 95.65 39.97 95.47C39.71 95.29 39.45 95.1 39.2 94.91C38.94 94.72 38.69 94.53 38.44 94.33C38.23 94.17 38.03 94.01 37.83 93.84C37.51 93.58 37.19 93.31 36.87 93.04C36.66 92.86 36.45 92.67 36.25 92.49C36.01 92.27 35.78 92.06 35.55 91.83C35.32 91.61 35.09 91.39 34.86 91.16C34.42 90.72 33.99 90.27 33.57 89.81C33.35 89.56 33.12 89.31 32.91 89.06C32.49 88.58 32.09 88.1 31.7 87.6C31.46 87.3 31.23 86.99 31 86.68C30.86 86.5 30.73 86.32 30.6 86.13C30.56 86.07 30.51 86.01 30.47 85.95C30.31 85.72 30.15 85.49 29.99 85.26C29.83 85.03 29.69 84.81 29.54 84.58C29.33 84.26 29.12 83.93 28.92 83.6C28.6 83.07 28.29 82.53 27.99 81.98C27.41 80.93 26.89 79.84 26.41 78.72C26.3 78.46 26.19 78.21 26.09 77.95C26.09 77.95 26.09 77.93 26.08 77.91C26 77.71 25.92 77.52 25.85 77.33C25.78 77.15 25.71 76.97 25.64 76.79C25.57 76.6 25.5 76.41 25.44 76.22C25.34 75.95 25.25 75.68 25.16 75.41C25.07 75.14 24.98 74.86 24.9 74.58C24.89 74.56 24.88 74.53 24.88 74.5C24.8 74.24 24.72 73.96 24.64 73.69C24.56 73.4 24.48 73.11 24.4 72.82C24.18 71.94 23.98 71.05 23.82 70.16C23.77 69.86 23.72 69.56 23.67 69.26C23.62 68.96 23.58 68.66 23.54 68.35C20.42 67.27 17.5 65.75 14.85 63.88C15.3 90.09 36.69 111.2 63.01 111.2C89.33 111.2 111.18 89.64 111.18 63.03C111.18 36.42 90 15.25 63.73 14.87L63.75 14.79ZM23.39 59.17C23.42 58.88 23.45 58.58 23.48 58.29C23.51 58 23.55 57.7 23.59 57.41C23.63 57.12 23.67 56.83 23.72 56.54C23.76 56.25 23.82 55.96 23.87 55.68C24.09 54.53 24.35 53.39 24.66 52.28C24.73 52.01 24.82 51.73 24.9 51.45C24.96 51.23 25.03 51.02 25.1 50.8C25.12 50.71 25.15 50.61 25.19 50.53C25.27 50.29 25.35 50.05 25.44 49.81C25.51 49.6 25.58 49.39 25.67 49.18C25.72 49.05 25.77 48.92 25.82 48.79C26 48.32 26.18 47.87 26.37 47.41C26.6 46.88 26.83 46.35 27.09 45.83C27.21 45.58 27.33 45.33 27.45 45.09C27.52 44.93 27.61 44.78 27.69 44.62C27.78 44.43 27.88 44.25 27.98 44.07C28.01 44.01 28.05 43.94 28.09 43.88C28.22 43.63 28.36 43.39 28.5 43.14C28.63 42.92 28.76 42.7 28.88 42.48C29 42.29 29.11 42.1 29.23 41.92C29.34 41.75 29.45 41.58 29.56 41.4C30.02 40.69 30.5 39.99 31 39.32C31.17 39.09 31.34 38.87 31.51 38.64C31.64 38.47 31.77 38.3 31.91 38.13C32.31 37.63 32.72 37.13 33.15 36.65C33.32 36.45 33.5 36.25 33.68 36.06C34.06 35.64 34.45 35.24 34.85 34.84C35.01 34.68 35.17 34.52 35.34 34.36C35.6 34.11 35.85 33.86 36.11 33.63C36.3 33.45 36.49 33.28 36.69 33.11C37.04 32.8 37.4 32.5 37.75 32.2C37.93 32.05 38.12 31.9 38.3 31.75C39.1 31.11 39.93 30.5 40.78 29.93C41.02 29.76 41.27 29.6 41.52 29.44C41.72 29.31 41.91 29.19 42.11 29.07C42.26 28.98 42.41 28.88 42.56 28.8C42.78 28.66 43 28.53 43.23 28.41C43.51 28.24 43.79 28.09 44.07 27.94C44.35 27.78 44.64 27.63 44.92 27.49C45.2 27.34 45.49 27.2 45.78 27.06C45.8 27.06 45.81 27.05 45.83 27.04C46.34 26.79 46.86 26.56 47.38 26.33C47.77 26.16 48.16 26 48.56 25.85C48.82 25.74 49.08 25.64 49.35 25.55C49.58 25.46 49.82 25.38 50.05 25.3C50.17 25.26 50.29 25.22 50.41 25.17C50.67 25.09 50.93 25 51.19 24.92C51.5 24.82 51.81 24.73 52.13 24.64C52.44 24.55 52.76 24.46 53.08 24.38C53.36 24.31 53.64 24.24 53.92 24.17C54.13 24.12 54.35 24.07 54.56 24.03C54.65 24.01 54.75 23.99 54.84 23.97C55 23.94 55.16 23.91 55.33 23.87C55.61 23.82 55.9 23.76 56.18 23.71C56.39 23.68 56.59 23.64 56.79 23.61C57.01 23.57 57.22 23.54 57.44 23.51C58 23.43 58.56 23.36 59.13 23.31C57.73 20.46 55.82 17.89 53.54 15.71C34.5 19.52 19.51 34.54 15.77 53.6C17.95 55.88 20.52 57.77 23.38 59.17H23.39Z" fill="#FF3939"/>
<path d="M69.63 28.65C67.49 28.24 65.29 28.02 63.03 28.02C62.33 28.02 61.63 28.04 60.95 28.08C61.56 30.32 61.89 32.68 61.89 35.1C61.89 49.86 49.88 61.87 35.12 61.87C32.72 61.87 30.39 61.55 28.18 60.95C28.15 61.61 28.13 62.26 28.13 62.93C28.13 65.22 28.35 67.46 28.78 69.63C30.84 70.01 32.96 70.2 35.14 70.2C54.53 70.2 70.25 54.48 70.25 35.09C70.25 32.88 70.04 30.73 69.66 28.63L69.63 28.65ZM35.11 0C15.72 0 0 15.72 0 35.11C0 44.69 3.83999 53.37 10.05 59.7C10.28 55.87 10.91 52.12 11.93 48.5C9.63999 44.56 8.34003 39.98 8.34003 35.11C8.34003 20.35 20.35 8.34 35.11 8.34C39.96 8.34 44.52 9.62999 48.44 11.9C52.06 10.87 55.8 10.23 59.63 9.99C53.31 3.81 44.65 0 35.11 0Z" fill="white"/>
</svg>
